<?xml version="1.0" encoding="UTF-8" standalone="no"?>
<!-- Created with Inkscape (http://www.inkscape.org/) -->

<svg
   xmlns:dc="http://purl.org/dc/elements/1.1/"
   xmlns:cc="http://creativecommons.org/ns#"
   xmlns:rdf="http://www.w3.org/1999/02/22-rdf-syntax-ns#"
   xmlns:svg="http://www.w3.org/2000/svg"
   xmlns="http://www.w3.org/2000/svg"
   xmlns:sodipodi="http://sodipodi.sourceforge.net/DTD/sodipodi-0.dtd"
   xmlns:inkscape="http://www.inkscape.org/namespaces/inkscape"
   width="201.717"
   height="64"
   viewBox="0 0 53.370954 16.933334"
   version="1.1"
   id="svg8"
   inkscape:version="0.92.4 (5da689c313, 2019-01-14)"
   sodipodi:docname="logo-dizai.svg">
  <sodipodi:namedview
     id="base"
     pagecolor="#ffffff"
     bordercolor="#666666"
     borderopacity="1.0"
     inkscape:pageopacity="0.0"
     inkscape:pageshadow="2"
     inkscape:zoom="2.8"
     inkscape:cx="68.291184"
     inkscape:cy="60.434499"
     inkscape:document-units="mm"
     inkscape:current-layer="layer1"
     showgrid="false"
     inkscape:window-width="1920"
     inkscape:window-height="1017"
     inkscape:window-x="-8"
     inkscape:window-y="1016"
     inkscape:window-maximized="1"
     units="px" />
  <defs
     id="defs2">
    <clipPath
       id="clipPath3726"
       clipPathUnits="userSpaceOnUse">
      <rect
         y="51.315475"
         x="47.625004"
         height="83.910713"
         width="189.74405"
         id="rect3728"
         style="opacity:1;vector-effect:none;fill:#000000;fill-opacity:1;fill-rule:nonzero;stroke:#ffffff;stroke-width:1;stroke-linecap:round;stroke-linejoin:bevel;stroke-miterlimit:4;stroke-dasharray:none;stroke-dashoffset:0;stroke-opacity:1;paint-order:fill markers stroke" />
    </clipPath>
  </defs>
  <metadata
     id="metadata5">
    <rdf:RDF>
      <cc:Work
         rdf:about="">
        <dc:format>image/svg+xml</dc:format>
        <dc:type
           rdf:resource="http://purl.org/dc/dcmitype/StillImage" />
        <dc:title></dc:title>
      </cc:Work>
    </rdf:RDF>
  </metadata>
  <g
     id="layer1"
     inkscape:groupmode="layer"
     inkscape:label="Camada 1"
     transform="translate(0,-280.06666)">
    <path
       style="fill:#c83771;stroke-width:0.11283506"
       d="m 9.7162165,296.83528 c -0.569154,-0.31546 -0.568317,-0.30649 -0.572596,-6.13131 l -0.004,-5.44251 0.326958,-0.36593 c 0.441192,-0.49378 1.1013165,-0.51731 1.5630285,-0.0557 l 0.310297,0.31021 0.03141,5.43892 c 0.02286,3.95779 -0.0045,5.52564 -0.10052,5.75742 -0.232778,0.56197 -0.991973,0.80074 -1.5545805,0.48891 z m 12.3497975,-0.083 c -0.238926,-0.18794 -0.288865,-0.32174 -0.288865,-0.77397 0,-0.6532 0.08182,-0.90373 0.295147,-0.90373 0.124548,0 0.14327,0.12672 0.08809,0.59627 -0.100757,0.85729 -0.04461,0.88351 1.811436,0.84565 l 1.54308,-0.0315 0.0475,-0.74225 c 0.0443,-0.69149 0.0264,-0.76236 -0.26098,-1.03654 -0.60618,-0.57828 -1.47494,-0.69713 -2.21121,-0.30252 -0.237885,0.1275 -0.516399,0.21449 -0.618925,0.1933 -0.145863,-0.0301 -0.101823,-0.11679 0.202506,-0.39838 l 0.388909,-0.35985 -0.264075,-0.2811 c -0.346169,-0.36848 -0.442276,-1.23893 -0.190535,-1.72574 0.36909,-0.71375 1.37551,-1.02624 2.09945,-0.65187 0.78674,0.40684 1.0845,1.5268 0.5854,2.20185 -0.13398,0.18123 -0.2436,0.38305 -0.2436,0.44849 0,0.14608 0.69022,0.78657 0.84627,0.78529 0.0621,-4.3e-4 0.30776,-0.16784 0.546,-0.37182 l 0.43316,-0.37089 -0.29212,-0.43047 c -0.71994,-1.06089 -0.0265,-2.42916 1.23115,-2.42916 1.20355,0 2.00125,1.4411 1.31299,2.37202 -0.13258,0.17932 -0.24105,0.37959 -0.24105,0.44503 0,0.14635 0.69052,0.78674 0.84626,0.78483 0.0621,-8.5e-4 0.30346,-0.16987 0.53645,-0.37578 l 0.42361,-0.3744 -0.24388,-0.31005 c -0.35937,-0.45686 -0.41217,-1.29784 -0.1133,-1.80439 l 0.23577,-0.39959 h -0.4973 c -0.61541,0 -0.70377,-0.12616 -0.38775,-0.55362 0.37858,-0.51206 0.24253,-0.65421 -0.67581,-0.7061 -0.70693,-0.04 -0.83711,-0.0844 -1.16517,-0.39777 -0.36063,-0.3445 -0.38866,-0.35136 -1.19022,-0.29139 -0.45149,0.0338 -0.85098,0.1101 -0.88776,0.16961 -0.0368,0.0595 0.0448,0.25918 0.18119,0.44371 0.31982,0.43258 0.23089,0.65854 -0.25914,0.65854 -0.46673,0 -0.92881,-0.34119 -1.13705,-0.83957 -0.14179,-0.33935 -0.20249,-0.37243 -0.79574,-0.43366 -1.28662,-0.13279 -1.527444,-0.5458 -1.527444,-2.61957 0,-1.5645 0.126079,-2.0559 0.608597,-2.37206 0.376397,-0.24662 1.027507,-0.28371 1.027507,-0.0585 0,0.0973 -0.16035,0.19742 -0.3922,0.24484 -0.712318,0.14568 -0.792561,0.36698 -0.792561,2.18574 0,2.04153 0.04309,2.11722 1.252551,2.20028 l 0.82157,0.0564 0.10146,0.39493 c 0.195,0.75902 0.53246,0.91634 0.53246,0.24824 0,-0.5974 0.1507,-0.69958 1.03179,-0.69958 0.64147,0 0.81071,-0.0427 1.07758,-0.27205 0.31148,-0.26767 0.31719,-0.29513 0.35423,-1.70366 0.0618,-2.3511 0.007,-2.42411 -1.8148,-2.42659 -1.2933,-0.002 -1.77534,-0.11402 -1.43865,-0.33505 0.0931,-0.0611 0.69134,-0.11188 1.32944,-0.11283 1.2143,-0.002 1.82789,0.15152 2.02648,0.50637 0.094,0.16801 0.37013,0.19281 2.31628,0.20804 2.05191,0.016 2.23226,0.0341 2.52819,0.25383 0.55905,0.415 0.60846,0.6296 0.57506,2.49785 l -0.0307,1.71888 -0.35695,0.35663 c -0.2981,0.29784 -0.47116,0.36791 -1.0497,0.42499 -0.68252,0.0673 -0.69587,0.0753 -0.90284,0.53876 l -0.21008,0.47041 0.59021,-0.0609 c 0.71496,-0.0738 1.21543,0.14639 1.539,0.67706 0.2968,0.48676 0.29457,1.30934 -0.005,1.68964 -0.28924,0.36771 -0.28412,0.50583 0.0282,0.76116 0.41518,0.33939 0.11447,0.49764 -0.42399,0.22312 -0.80496,-0.41039 -1.85957,-0.20572 -2.32789,0.45178 -0.16252,0.22817 -0.18801,0.41688 -0.13339,0.98731 l 0.0675,0.70521 h 1.5502 c 1.83479,0 1.87198,-0.0203 1.76143,-0.96091 -0.0578,-0.4918 -0.04,-0.61877 0.0865,-0.61877 0.18577,0 0.40695,0.56581 0.40695,1.04103 0,0.21312 -0.11468,0.44503 -0.32319,0.65353 l -0.32319,0.32319 h -5.48104 c -5.322664,0 -5.489381,-0.007 -5.7699,-0.22722 z m 7.474188,-0.34624 c 0.22128,-0.22128 0.15868,-0.92537 -0.11847,-1.3326 -0.37821,-0.55571 -0.79426,-0.81412 -1.40526,-0.87283 -1.02463,-0.0985 -1.90182,0.56851 -2.03289,1.54568 -0.1012,0.7545 -0.008,0.79515 1.82149,0.79515 1.09379,0 1.64255,-0.0428 1.73513,-0.1354 z m -4.74721,-3.08355 c 0.35778,-0.35777 0.39187,-0.44434 0.33678,-0.85502 -0.0729,-0.54359 -0.31267,-0.8382 -0.8178,-1.00492 -0.54946,-0.18133 -1.13567,0.0914 -1.36233,0.63387 -0.213893,0.51192 -0.13217,0.87647 0.29146,1.30009 0.47618,0.47618 1.02801,0.44986 1.55189,-0.074 z m -1.18227,-0.077 c -0.6526,-0.17001 -0.44537,-0.38528 0.37091,-0.38528 0.59982,0 0.73144,0.0321 0.70454,0.17182 -0.0429,0.22285 -0.60853,0.33511 -1.07545,0.21346 z m -0.0835,-1.10644 c 0.039,-0.0631 0.11813,-0.0855 0.17591,-0.0498 0.15651,0.0967 0.12732,0.16444 -0.0709,0.16444 -0.0968,0 -0.14402,-0.0516 -0.10504,-0.11468 z m 0.73228,-0.005 c 0,-0.0657 0.0508,-0.0881 0.11284,-0.0498 0.0621,0.0383 0.11284,0.0921 0.11284,0.1195 0,0.0274 -0.0508,0.0498 -0.11284,0.0498 -0.0621,0 -0.11284,-0.0538 -0.11284,-0.1195 z m 4.35544,1.20271 c 0.44573,-0.44572 0.49375,-0.84484 0.16628,-1.38188 -0.47954,-0.78643 -1.64194,-0.70407 -1.99519,0.14138 -0.2139,0.51192 -0.13218,0.87647 0.29145,1.30009 0.47092,0.47092 1.02857,0.4493 1.53746,-0.0596 z m -1.39351,-0.13985 c -0.0776,-0.0327 -0.14105,-0.1219 -0.14105,-0.19818 0,-0.0956 0.22942,-0.1387 0.73763,-0.1387 0.60784,0 0.73174,0.031 0.70417,0.17631 -0.0243,0.12812 -0.18738,0.18229 -0.59659,0.19819 -0.30971,0.012 -0.62659,-0.005 -0.70416,-0.0376 z m 0.14104,-1.0562 c 0.0383,-0.0621 0.0921,-0.11283 0.1195,-0.11283 0.0274,0 0.0498,0.0508 0.0498,0.11283 0,0.0621 -0.0538,0.11284 -0.1195,0.11284 -0.0657,0 -0.0881,-0.0508 -0.0498,-0.11284 z m 0.73343,-0.007 c 0,-0.0657 0.0508,-0.0881 0.11284,-0.0498 0.0621,0.0383 0.11283,0.0921 0.11283,0.1195 0,0.0274 -0.0508,0.0498 -0.11283,0.0498 -0.0621,0 -0.11284,-0.0538 -0.11284,-0.11949 z m 4.35544,1.20271 c 0.44572,-0.44572 0.49374,-0.84484 0.16628,-1.38188 -0.46881,-0.76882 -1.60757,-0.70537 -1.997,0.11127 -0.23186,0.48621 -0.14168,0.89527 0.29326,1.3302 0.47091,0.47092 1.02857,0.4493 1.53746,-0.0596 z m -1.39352,-0.13985 c -0.0776,-0.0327 -0.14104,-0.1219 -0.14104,-0.19818 0,-0.0956 0.22942,-0.1387 0.73762,-0.1387 0.60784,0 0.73174,0.031 0.70417,0.17631 -0.0243,0.12811 -0.18738,0.18228 -0.59659,0.19819 -0.30971,0.012 -0.62658,-0.005 -0.70416,-0.0376 z m 0.14104,-1.0562 c 0.0383,-0.0621 0.0921,-0.11284 0.1195,-0.11284 0.0274,0 0.0498,0.0508 0.0498,0.11284 0,0.0621 -0.0538,0.11284 -0.1195,0.11284 -0.0657,0 -0.0881,-0.0508 -0.0498,-0.11284 z m 0.73344,-0.007 c 0,-0.0657 0.0508,-0.0881 0.11283,-0.0498 0.0621,0.0383 0.11283,0.0921 0.11283,0.1195 0,0.0274 -0.0508,0.0497 -0.11283,0.0497 -0.0621,0 -0.11283,-0.0538 -0.11283,-0.11949 z m -1.25118,-1.75132 c 0.0876,-0.18121 0.19437,-0.40562 0.23727,-0.49872 0.0533,-0.11564 0.31192,-0.18712 0.81652,-0.22566 1.18654,-0.0907 1.2129,-0.13867 1.2129,-2.20959 v -1.72327 l -0.2973,-0.23386 c -0.27455,-0.21596 -0.44556,-0.23386 -2.23414,-0.23386 -1.35598,0 -1.97744,0.0406 -2.07223,0.13541 -0.0913,0.0913 -0.1354,0.60804 -0.1354,1.58529 0,1.08174 -0.0439,1.5348 -0.17292,1.78426 -0.16451,0.31814 -0.15928,0.34801 0.10771,0.61499 0.24428,0.24428 0.38065,0.28062 1.05302,0.28062 0.89607,0 1.04322,0.10001 1.04322,0.70898 0,0.51506 0.19649,0.52192 0.44135,0.0154 z m -1.68254,-2.23064 c 0,-0.11214 0.28253,-0.17079 1.07269,-0.2227 1.20208,-0.079 1.74819,-0.0103 1.74819,0.21978 0,0.12337 -0.28893,0.15515 -1.41044,0.15515 -1.10842,0 -1.41044,-0.0326 -1.41044,-0.15223 z m 0,-0.80687 c 0,-0.14142 0.23194,-0.16925 1.41044,-0.16925 1.1785,0 1.41044,0.0278 1.41044,0.16925 0,0.14142 -0.23194,0.16926 -1.41044,0.16926 -1.1785,0 -1.41044,-0.0279 -1.41044,-0.16926 z m 0.0525,-0.62692 c -0.16373,-0.26492 0.17826,-0.33886 1.42386,-0.30784 1.05549,0.0263 1.28809,0.0627 1.28809,0.20133 0,0.13897 -0.23565,0.17493 -1.31698,0.20097 -0.88101,0.0212 -1.3428,-0.0101 -1.39497,-0.0945 z m 16.18707,9.94449 -0.32983,-0.32983 v -5.48677 c 0,-6.0134 -0.003,-5.98369 0.66423,-6.26013 0.43608,-0.18063 0.93127,-0.0667 1.268,0.29173 l 0.26805,0.28533 v 5.5855 5.5855 l -0.36849,0.32925 c -0.50357,0.44993 -1.05166,0.44972 -1.50196,-4.3e-4 z m 5.07265,0.012 c -0.2962,-0.26465 -0.35568,-0.40019 -0.35568,-0.81056 0,-0.41036 0.0595,-0.5459 0.35568,-0.81055 0.39849,-0.35606 0.76941,-0.39954 1.25705,-0.14738 0.66544,0.34411 0.7797,1.20885 0.23209,1.75646 -0.44567,0.44567 -0.99881,0.45014 -1.48914,0.012 z M 0.3298085,296.54924 -1.7504807e-5,296.21942 v -5.45607 c 0,-4.60108 0.02582000481,-5.49293 0.164759004807,-5.6913 0.312194,-0.44572 0.72419,-0.51819 2.679514,-0.47134 1.726093,0.0414 1.877273,0.0629 2.475095,0.35268 0.740999,0.35917 1.480982,1.11375 1.827505,1.86354 0.226508,0.49012 0.246326,0.73484 0.279064,3.44612 0.03232,2.67685 0.01618,2.98052 -0.194922,3.66713 -0.2746,0.89314 -0.874649,1.71619 -1.627974,2.23299 -0.849221,0.58259 -1.467297,0.7159 -3.319082,0.7159 h -1.624309 z m 3.651234,-2.08223 c 0.439096,-0.18787 0.92602,-0.68913 1.08934,-1.12138 0.176503,-0.46716 0.157057,-5.35839 -0.02269,-5.70816 -0.284056,-0.55272 -0.702327,-0.74121 -1.741298,-0.78467 -0.724617,-0.0303 -0.989121,-0.002 -1.062016,0.11284 -0.108924,0.17191 -0.139029,7.19943 -0.03204,7.47824 0.0886,0.23089 1.247721,0.24605 1.768704,0.0231 z m 8.7502345,2.23947 c -0.34493,-0.18732 -0.600241,-0.82595 -0.482884,-1.20787 0.0432,-0.14061 1.038164,-2.09925 2.211019,-4.35254 1.172855,-2.25328 2.102923,-4.14468 2.066817,-4.2031 -0.03645,-0.059 -0.839817,-0.10622 -1.80615,-0.10622 h -1.740505 l -0.36593,-0.32696 c -0.302822,-0.27056 -0.36593,-0.40877 -0.36593,-0.80139 0,-0.39412 0.06292,-0.53065 0.371684,-0.80653 l 0.371683,-0.3321 3.048941,0.0333 3.048943,0.0333 0.284528,0.33097 c 0.51496,0.59901 0.398193,0.92424 -1.926952,5.3672 -1.152957,2.2031 -2.097343,4.06911 -2.098638,4.14669 -0.0018,0.10669 0.411243,0.14104 1.695777,0.14104 2.203986,0 2.589603,0.17661 2.589603,1.18603 0,0.30384 -0.08601,0.49703 -0.329826,0.74085 l -0.329824,0.32982 -2.970601,-0.005 c -2.374229,-0.003 -3.03106,-0.0374 -3.271755,-0.16807 z m 23.254415,-0.15724 c -0.24519,-0.24519 -0.32982,-0.43651 -0.32982,-0.74557 0,-0.4602 3.07877,-10.43153 3.3475,-10.84167 0.25836,-0.3943 0.83243,-0.54285 1.31639,-0.34064 0.21754,0.0909 0.45036,0.26772 0.51737,0.39295 0.2828,0.5284 3.30407,10.37913 3.30792,10.78533 0.003,0.35835 -0.0643,0.50505 -0.35145,0.76164 l -0.35568,0.31779 h -3.5612 -3.56121 z m 5.42476,-2.10437 c 0,-0.36208 -1.39706,-4.67441 -1.51435,-4.67435 -0.11086,5e-5 -1.53736,4.38144 -1.53374,4.7108 0.001,0.1058 0.38225,0.14105 1.52482,0.14105 1.31024,0 1.52327,-0.0248 1.52327,-0.1775 z m 9.28127,-0.52111 c -0.20137,-0.0536 -0.44371,-0.2158 -0.53853,-0.36051 -0.17173,-0.26211 -1.40396,-7.11531 -1.40693,-7.82487 -8.5e-4,-0.24527 0.10643,-0.48576 0.32772,-0.73342 l 0.32925,-0.3685 h 1.65462 1.65462 l 0.32925,0.3685 c 0.1823,0.20403 0.32925,0.49757 0.32925,0.65772 0,0.65949 -1.265,7.64993 -1.42988,7.90157 -0.0967,0.14755 -0.18296,0.26826 -0.19174,0.26826 -0.009,0 -0.16797,0.0424 -0.35374,0.0943 -0.18577,0.0519 -0.50252,0.0505 -0.70389,-0.003 z m -26.22004,-6.00831 c -0.94498,-0.69351 -1.23272,-1.74145 -0.62944,-2.29238 0.21493,-0.19627 0.40475,-0.2266 1.42237,-0.22718 1.08159,-4.3e-4 1.19524,0.0202 1.43866,0.26362 0.35107,0.35107 0.35502,1.00924 0.009,1.52251 -0.33185,0.49242 -1.16197,1.12235 -1.47435,1.11878 -0.1348,-0.002 -0.47967,-0.17494 -0.76637,-0.38535 z m 1.41226,-0.42146 c 0.53414,-0.44029 0.78663,-0.98469 0.63801,-1.37562 -0.14051,-0.36955 -0.48138,-0.46155 -0.90277,-0.24364 -0.30967,0.16014 -0.3775,0.16072 -0.67705,0.006 -0.42313,-0.21881 -0.55956,-0.21637 -0.81477,0.0146 -0.42101,0.381 -0.15215,1.19162 0.5545,1.6718 0.5415,0.36796 0.67716,0.35973 1.20208,-0.0729 z m 19.35423,-3.69511 c -0.65018,-0.65018 -0.40169,-1.28883 1.03975,-2.67229 0.93757,-0.89987 1.19231,-1.05995 1.68669,-1.05995 0.6029,0 1.00579,0.43757 1.00579,1.09238 0,0.4744 -0.0483,0.54739 -1.04309,1.57567 -0.5737,0.59303 -1.18049,1.14929 -1.34842,1.23612 -0.50047,0.2588 -0.97023,0.19857 -1.34072,-0.17193 z"
       id="path63"
       inkscape:connector-curvature="0"
       inkscape:export-xdpi="95"
       inkscape:export-ydpi="95" />
  </g>
</svg>
